<svg width="512" height="534" viewBox="0 0 512 534" fill="none" xmlns="http://www.w3.org/2000/svg">
<rect width="512" height="512" rx="70" fill="black"/>
<g clip-path="url(#clip0_177_4)">
<path d="M271.834 342.566C267.944 347.583 262.363 350.458 256.5 350.458C250.637 350.458 245.037 347.583 241.166 342.566L186.52 272.134C183.147 267.62 181.324 262.135 181.324 256.5C181.324 250.864 183.147 245.38 186.52 240.865L241.166 170.434C245.056 165.417 250.637 162.542 256.5 162.542C262.363 162.542 267.963 165.417 271.834 170.434L326.48 240.865C329.854 245.38 331.676 250.864 331.676 256.5C331.676 262.135 329.854 267.62 326.48 272.134L271.834 342.566Z" stroke="white" stroke-width="20" stroke-linecap="round" stroke-linejoin="round"/>
<path d="M87.375 256.5H124.958" stroke="white" stroke-width="20" stroke-linecap="round" stroke-linejoin="round"/>
<path d="M388.041 256.5H425.624" stroke="white" stroke-width="20" stroke-linecap="round" stroke-linejoin="round"/>
</g>
<defs>
<clipPath id="clip0_177_4">
<rect width="451" height="451" fill="white" transform="translate(31 31)"/>
</clipPath>
</defs>
</svg>
